<svg width="400" height="250" viewBox="0 0 400 250" fill="none" xmlns="http://www.w3.org/2000/svg">
  <defs>
    <linearGradient id="advGrad" x1="0" y1="0" x2="400" y2="250" gradientUnits="userSpaceOnUse">
      <stop stop-color="#EFF6FF"/>
      <stop offset="1" stop-color="#FEF3C7"/>
    </linearGradient>
    <linearGradient id="advBadgeGrad" x1="0" y1="0" x2="100" y2="100" gradientUnits="userSpaceOnUse">
      <stop stop-color="#1E3A8A"/>
      <stop offset="1" stop-color="#0F172A"/>
    </linearGradient>
  </defs>
  <rect width="400" height="250" rx="16" fill="url(#advGrad)"/>
  
  <!-- Decorative Elements -->
  <circle cx="70" cy="60" r="30" fill="#FDE68A" fill-opacity="0.4"/>
  <circle cx="340" cy="180" r="40" fill="#BFDBFE" fill-opacity="0.4"/>
  
  <!-- Center Badge -->
  <circle cx="200" cy="110" r="52" fill="url(#advBadgeGrad)" filter="drop-shadow(0 6px 16px rgba(15,23,42,0.3))"/>
  
  <!-- Graduation Cap Icon -->
  <path d="M200 90L228 102L200 114L172 102L200 90Z" fill="#F5A600"/>
  <path d="M182 110.5V122C182 128 200 132 200 132C200 132 218 128 218 122V110.5L200 118.5L182 110.5Z" fill="#F5A600" fill-opacity="0.85"/>
  <path d="M228 102V124" stroke="#F5A600" stroke-width="2.5" stroke-linecap="round"/>
  <circle cx="228" cy="125" r="2.5" fill="#F5A600"/>
  
  <!-- Label Text -->
  <text x="200" y="195" text-anchor="middle" font-family="'Noto Sans', system-ui, sans-serif" font-size="16" font-weight="700" fill="#1E3A8A" letter-spacing="0.5">ADVANCED LEVEL</text>
  <text x="200" y="218" text-anchor="middle" font-family="'Noto Sans', system-ui, sans-serif" font-size="12" font-weight="500" fill="#64748B">Grades 12 – 13 • Science, Commerce, Arts &amp; Tech</text>
</svg>
